<mxfile host="Electron" modified="2024-10-16T22:28:36.068Z" agent="Mozilla/5.0 (Windows NT 10.0; Win64; x64) AppleWebKit/537.36 (KHTML, like Gecko) draw.io/22.1.2 Chrome/114.0.5735.289 Electron/25.9.4 Safari/537.36" etag="Cp9cefD7gW1OdoP6yiT3" version="22.1.2" type="device">
  <diagram name="Página-1" id="7dIxah9SoJxVZm4EKt8h">
    <mxGraphModel dx="736" dy="828" grid="1" gridSize="10" guides="1" tooltips="1" connect="1" arrows="1" fold="1" page="1" pageScale="1" pageWidth="827" pageHeight="1169" math="0" shadow="0">
      <root>
        <mxCell id="0" />
        <mxCell id="1" parent="0" />
        <mxCell id="NNn7WGn4Fx_rrDwgKK-B-3" value="" style="edgeStyle=orthogonalEdgeStyle;rounded=0;orthogonalLoop=1;jettySize=auto;html=1;" edge="1" parent="1" source="NNn7WGn4Fx_rrDwgKK-B-1">
          <mxGeometry relative="1" as="geometry">
            <mxPoint x="140" y="120" as="targetPoint" />
          </mxGeometry>
        </mxCell>
        <mxCell id="NNn7WGn4Fx_rrDwgKK-B-1" value="Início" style="rounded=1;whiteSpace=wrap;html=1;" vertex="1" parent="1">
          <mxGeometry x="80" y="40" width="120" height="40" as="geometry" />
        </mxCell>
        <mxCell id="NNn7WGn4Fx_rrDwgKK-B-6" value="" style="edgeStyle=orthogonalEdgeStyle;rounded=0;orthogonalLoop=1;jettySize=auto;html=1;" edge="1" parent="1" source="NNn7WGn4Fx_rrDwgKK-B-4" target="NNn7WGn4Fx_rrDwgKK-B-5">
          <mxGeometry relative="1" as="geometry" />
        </mxCell>
        <mxCell id="NNn7WGn4Fx_rrDwgKK-B-4" value="Usuário indica o nome" style="shape=parallelogram;perimeter=parallelogramPerimeter;whiteSpace=wrap;html=1;fixedSize=1;" vertex="1" parent="1">
          <mxGeometry x="80" y="120" width="120" height="60" as="geometry" />
        </mxCell>
        <mxCell id="NNn7WGn4Fx_rrDwgKK-B-8" value="" style="edgeStyle=orthogonalEdgeStyle;rounded=0;orthogonalLoop=1;jettySize=auto;html=1;" edge="1" parent="1" source="NNn7WGn4Fx_rrDwgKK-B-5" target="NNn7WGn4Fx_rrDwgKK-B-7">
          <mxGeometry relative="1" as="geometry" />
        </mxCell>
        <mxCell id="NNn7WGn4Fx_rrDwgKK-B-5" value="Sistema armazena o nome" style="rounded=0;whiteSpace=wrap;html=1;" vertex="1" parent="1">
          <mxGeometry x="80" y="220" width="120" height="60" as="geometry" />
        </mxCell>
        <mxCell id="NNn7WGn4Fx_rrDwgKK-B-10" value="" style="edgeStyle=orthogonalEdgeStyle;rounded=0;orthogonalLoop=1;jettySize=auto;html=1;" edge="1" parent="1" source="NNn7WGn4Fx_rrDwgKK-B-7" target="NNn7WGn4Fx_rrDwgKK-B-9">
          <mxGeometry relative="1" as="geometry" />
        </mxCell>
        <mxCell id="NNn7WGn4Fx_rrDwgKK-B-7" value="Usuário indica a idade" style="shape=parallelogram;perimeter=parallelogramPerimeter;whiteSpace=wrap;html=1;fixedSize=1;" vertex="1" parent="1">
          <mxGeometry x="80" y="320" width="120" height="60" as="geometry" />
        </mxCell>
        <mxCell id="NNn7WGn4Fx_rrDwgKK-B-12" value="" style="edgeStyle=orthogonalEdgeStyle;rounded=0;orthogonalLoop=1;jettySize=auto;html=1;" edge="1" parent="1" source="NNn7WGn4Fx_rrDwgKK-B-9" target="NNn7WGn4Fx_rrDwgKK-B-11">
          <mxGeometry relative="1" as="geometry" />
        </mxCell>
        <mxCell id="NNn7WGn4Fx_rrDwgKK-B-9" value="Sistema armazena a idade" style="rounded=0;whiteSpace=wrap;html=1;" vertex="1" parent="1">
          <mxGeometry x="80" y="420" width="120" height="60" as="geometry" />
        </mxCell>
        <mxCell id="NNn7WGn4Fx_rrDwgKK-B-11" value="Sistema categoriza a pessoa de acordo com a idade: retorna o nome e a categoria" style="strokeWidth=2;html=1;shape=mxgraph.flowchart.display;whiteSpace=wrap;" vertex="1" parent="1">
          <mxGeometry x="80" y="525" width="200" height="115" as="geometry" />
        </mxCell>
      </root>
    </mxGraphModel>
  </diagram>
</mxfile>
